<?xml version="1.0" encoding="UTF-8"?>
<svg id="Camada_1" data-name="Camada 1" xmlns="http://www.w3.org/2000/svg" viewBox="0 0 1920 1080">
  <defs>
    <style>
      .cls-1 {
        fill: none;
        stroke: #04d624;
        stroke-miterlimit: 10;
      }
    </style>
  </defs>
  <path class="cls-1" d="m824.39,392.37h2.3c37.71,0,75.42,0,113.14,0,7.75,0,14.92,1.83,21.12,6.64,6.61,5.12,10.59,11.84,11.92,20.12.76,4.73.47,9.42-.37,14.11-1.45,8.13-2.89,16.25-4.33,24.38-1.65,9.27-5.93,17.17-12.51,23.86-6.87,6.99-14.83,12.16-24.52,14.23-2.91.62-5.93,1.01-8.9,1.02-37.85.07-75.69.05-113.54.04-.65,0-1.3-.07-2.33-.13,2.81-16.95,5.71-33.69,8.63-50.63h104.32c.88-4.68,1.73-9.21,2.63-14-1.11,0-1.89,0-2.67,0-20.72,0-41.44-.01-62.17,0-6.6,0-12.87-1.33-18.46-4.93-8.39-5.4-13.2-13.14-14.54-23.03-.52-3.78-.5-7.55.28-11.66Z"/>
  <path class="cls-1" d="m669.3,392.48h140.91c-2.28,13.22-4.53,26.28-6.8,39.47h-90.2c-.83,4.61-1.64,9.09-2.51,13.97,6.15.04,12.1.01,18.04.02,6,0,11.99,0,17.99,0h35.98c5.98,0,11.95,0,18.23,0-3.04,17.04-6.02,33.78-9.03,50.65h-140.35c-.26-1.5,16.61-100.63,17.74-104.12Z"/>
  <path class="cls-1" d="m1225.69,392.51h50.79c.19,2.01.43,4.03.57,6.06.72,10.23,1.41,20.46,2.13,30.68.78,11.02,1.58,22.04,2.4,33.06.74,9.96,1.52,19.91,2.24,29.87.1,1.38.01,2.78.01,4.17-1.39.5-47.68.66-50.49.14-.57-7.26-1.16-14.59-1.75-22.06h-47.98c-3.11,7.33-6.25,14.73-9.43,22.21h-50.51c14.78-34.85,29.48-69.51,44.18-104.17h50.88c-5.56,13.18-11.04,26.14-16.61,39.32h26.59c-1.01-13.1-2.02-26.12-3.04-39.29Z"/>
  <path class="cls-1" d="m975.53,496.6c5.99-34.79,11.95-69.38,17.93-104.09h50.88c-3.08,17.79-6.13,35.4-9.25,53.4,5.23.01,10.19.03,15.14.03,5,0,9.99,0,14.99,0h44.77c4.98,0,9.96,0,15.32,0-3.04,17.05-6.01,33.78-9.02,50.65h-140.77Z"/>
  <path class="cls-1" d="m502.53,378.03c2.95-16.79,5.88-33.48,8.84-50.3h155.26c-3,16.85-5.98,33.58-8.95,50.21-1.67.53-152.5.64-155.15.09Z"/>
  <path class="cls-1" d="m982.03,378.23h-155.1c.42-2.46.81-4.73,1.18-7.01,1.04-6.26,2.24-12.49,5.51-18.04,7.74-13.18,18.86-21.87,34-24.97,2.71-.56,5.56-.62,8.35-.63,37.5-.04,75-.03,112.51-.02.72,0,1.43.07,2.53.13-2.91,16.95-5.97,33.66-8.97,50.54Z"/>
  <path class="cls-1" d="m671.7,378.24c2.99-17,5.93-33.7,8.89-50.52h141.13c-3.02,16.95-6.01,33.69-9.01,50.52h-141.01Z"/>
  <path class="cls-1" d="m533.74,496.65c6.13-34.88,12.21-69.46,18.31-104.14h50.89c-6.12,34.8-12.21,69.43-18.31,104.14h-50.89Z"/>
  <path class="cls-1" d="m1271.73,327.69c1.23,16.83,2.46,33.58,3.7,50.52h-101.54c7.24-16.96,14.4-33.71,21.58-50.52h76.26Z"/>
  <path class="cls-1" d="m996.1,378.26c2.98-16.96,5.91-33.66,8.88-50.52h50.89c-3.01,16.88-6,33.67-9.01,50.52h-50.76Z"/>
  <path class="cls-1" d="m1165.03,770.64c-86.98,125.66-251.11,303.48-225.78,12.91-1.72,233.84,147.48,83.3,225.78-12.91Z"/>
  <path class="cls-1" d="m1311.29,770.64c-86.98,125.66-251.11,303.48-225.78,12.91-1.72,233.84,147.48,83.3,225.78-12.91Z"/>
  <path class="cls-1" d="m1018.73,770.64c-86.98,125.66-251.11,303.48-225.78,12.91-1.72,233.84,147.48,83.3,225.78-12.91Z"/>
  <path class="cls-1" d="m713.48,725.83c86.98-125.66,251.11-303.48,225.78-12.91,1.72-233.84-147.48-83.3-225.78,12.91Z"/>
  <path class="cls-1" d="m567.23,725.83c86.98-125.66,251.11-303.48,225.78-12.91,1.72-233.84-147.48-83.3-225.78,12.91Z"/>
  <path class="cls-1" d="m859.78,725.83c86.98-125.66,251.11-303.48,225.78-12.91,1.72-233.84-147.48-83.3-225.78,12.91Z"/>
</svg>